<svg width="75" height="75" viewBox="0 0 75 75" fill="none" xmlns="http://www.w3.org/2000/svg">
<rect width="74.026" height="74.5" fill="black" fill-opacity="0" transform="translate(0.187286)"/>
<path d="M37.2 42.6C48.9637 42.6 58.5 33.0637 58.5 21.3C58.5 9.53634 48.9637 0 37.2 0C25.4363 0 15.9 9.53634 15.9 21.3C15.9 33.0637 25.4363 42.6 37.2 42.6Z" fill="white"/>
<rect width="74.026" height="31.0657" fill="black" fill-opacity="0" transform="translate(0.187286 43.4343)"/>
<path d="M73.9 67.8C69.7 56.1 60.2 47 48.2 43.5C47.8 43.4 47.4 43.4 47.1 43.6C44.1 45.2 40.8 46.1 37.2 46.1C33.6 46.1 30.3 45.2 27.3 43.6C27 43.4 26.6 43.4 26.2 43.5C14.2 47 4.7 56.1 0.5 67.8C-0.7 71.1 1.7 74.5 5.2 74.5H69.3C72.7 74.5 75.1 71 73.9 67.8Z" fill="white"/>
</svg>
